<svg viewBox="0 0 100 100" xmlns="http://www.w3.org/2000/svg">
  <!-- 電卓の本体 -->
  <rect x="20" y="15" width="60" height="70" rx="8" ry="8" fill="#2c3e50" stroke="#34495e" stroke-width="2"/>
  
  <!-- ディスプレイ -->
  <rect x="25" y="20" width="50" height="12" rx="2" ry="2" fill="#1a1a1a"/>
  <text x="70" y="29" font-family="Arial, sans-serif" font-size="8" fill="#00ff00" text-anchor="end">123.45</text>
  
  <!-- ボタン配置 -->
  <!-- 1行目 -->
  <rect x="27" y="37" width="9" height="7" rx="1" fill="#95a5a6"/>
  <text x="31.5" y="42" font-family="Arial, sans-serif" font-size="4" fill="#2c3e50" text-anchor="middle">C</text>
  
  <rect x="38" y="37" width="9" height="7" rx="1" fill="#95a5a6"/>
  <text x="42.5" y="42" font-family="Arial, sans-serif" font-size="4" fill="#2c3e50" text-anchor="middle">±</text>
  
  <rect x="49" y="37" width="9" height="7" rx="1" fill="#95a5a6"/>
  <text x="53.5" y="42" font-family="Arial, sans-serif" font-size="4" fill="#2c3e50" text-anchor="middle">%</text>
  
  <rect x="60" y="37" width="9" height="7" rx="1" fill="#f39c12"/>
  <text x="64.5" y="42" font-family="Arial, sans-serif" font-size="4" fill="#fff" text-anchor="middle">÷</text>
  
  <!-- 2行目 -->
  <rect x="27" y="46" width="9" height="7" rx="1" fill="#ecf0f1"/>
  <text x="31.5" y="51" font-family="Arial, sans-serif" font-size="4" fill="#2c3e50" text-anchor="middle">7</text>
  
  <rect x="38" y="46" width="9" height="7" rx="1" fill="#ecf0f1"/>
  <text x="42.5" y="51" font-family="Arial, sans-serif" font-size="4" fill="#2c3e50" text-anchor="middle">8</text>
  
  <rect x="49" y="46" width="9" height="7" rx="1" fill="#ecf0f1"/>
  <text x="53.5" y="51" font-family="Arial, sans-serif" font-size="4" fill="#2c3e50" text-anchor="middle">9</text>
  
  <rect x="60" y="46" width="9" height="7" rx="1" fill="#f39c12"/>
  <text x="64.5" y="51" font-family="Arial, sans-serif" font-size="4" fill="#fff" text-anchor="middle">×</text>
  
  <!-- 3行目 -->
  <rect x="27" y="55" width="9" height="7" rx="1" fill="#ecf0f1"/>
  <text x="31.5" y="60" font-family="Arial, sans-serif" font-size="4" fill="#2c3e50" text-anchor="middle">4</text>
  
  <rect x="38" y="55" width="9" height="7" rx="1" fill="#ecf0f1"/>
  <text x="42.5" y="60" font-family="Arial, sans-serif" font-size="4" fill="#2c3e50" text-anchor="middle">5</text>
  
  <rect x="49" y="55" width="9" height="7" rx="1" fill="#ecf0f1"/>
  <text x="53.5" y="60" font-family="Arial, sans-serif" font-size="4" fill="#2c3e50" text-anchor="middle">6</text>
  
  <rect x="60" y="55" width="9" height="7" rx="1" fill="#f39c12"/>
  <text x="64.5" y="60" font-family="Arial, sans-serif" font-size="4" fill="#fff" text-anchor="middle">-</text>
  
  <!-- 4行目 -->
  <rect x="27" y="64" width="9" height="7" rx="1" fill="#ecf0f1"/>
  <text x="31.5" y="69" font-family="Arial, sans-serif" font-size="4" fill="#2c3e50" text-anchor="middle">1</text>
  
  <rect x="38" y="64" width="9" height="7" rx="1" fill="#ecf0f1"/>
  <text x="42.5" y="69" font-family="Arial, sans-serif" font-size="4" fill="#2c3e50" text-anchor="middle">2</text>
  
  <rect x="49" y="64" width="9" height="7" rx="1" fill="#ecf0f1"/>
  <text x="53.5" y="69" font-family="Arial, sans-serif" font-size="4" fill="#2c3e50" text-anchor="middle">3</text>
  
  <rect x="60" y="64" width="9" height="7" rx="1" fill="#f39c12"/>
  <text x="64.5" y="69" font-family="Arial, sans-serif" font-size="4" fill="#fff" text-anchor="middle">+</text>
  
  <!-- 5行目 -->
  <rect x="27" y="73" width="20" height="7" rx="1" fill="#ecf0f1"/>
  <text x="37" y="78" font-family="Arial, sans-serif" font-size="4" fill="#2c3e50" text-anchor="middle">0</text>
  
  <rect x="49" y="73" width="9" height="7" rx="1" fill="#ecf0f1"/>
  <text x="53.5" y="78" font-family="Arial, sans-serif" font-size="4" fill="#2c3e50" text-anchor="middle">.</text>
  
  <rect x="60" y="73" width="9" height="7" rx="1" fill="#e74c3c"/>
  <text x="64.5" y="78" font-family="Arial, sans-serif" font-size="4" fill="#fff" text-anchor="middle">=</text>
</svg>